<svg width="19" height="16" viewBox="0 0 19 16" fill="none" xmlns="http://www.w3.org/2000/svg">
<path d="M9.50266 15.2273L2.20153 7.92614C1.61914 7.34375 1.23088 6.66667 1.03675 5.89489C0.84736 5.12311 0.849728 4.35606 1.04386 3.59375C1.23799 2.8267 1.62388 2.15909 2.20153 1.59091C2.79338 1.00852 3.4681 0.622632 4.22567 0.433239C4.98799 0.23911 5.74793 0.23911 6.5055 0.433239C7.26782 0.627367 7.9449 1.01326 8.53675 1.59091L9.50266 2.52841L10.4686 1.59091C11.0652 1.01326 11.7422 0.627367 12.4998 0.433239C13.2574 0.23911 14.015 0.23911 14.7726 0.433239C15.5349 0.622632 16.2119 1.00852 16.8038 1.59091C17.3815 2.15909 17.7673 2.8267 17.9615 3.59375C18.1556 4.35606 18.1556 5.12311 17.9615 5.89489C17.7721 6.66667 17.3862 7.34375 16.8038 7.92614L9.50266 15.2273Z" fill="black"/>
</svg>
